<svg xmlns="http://www.w3.org/2000/svg" viewBox="0 0 32 32" width="512" height="512" shape-rendering="crispEdges">
  <!-- 3. KATMAN: RUST (En Alt - Pas Turuncusu) -->
  <!-- Kenar/Kalınlık -->
  <path d="M7,20 L16,24.5 L25,20 L25,23 L16,27.5 L7,23 Z" fill="#9c3a1a"/>
  <!-- Üst Yüzey -->
  <path d="M16,16 L25,20 L16,24.5 L7,20 Z" fill="#d75a2b"/>

  <!-- 2. KATMAN: PyO3 (Orta - Metalik Gri) -->
  <!-- Kenar/Kalınlık -->
  <path d="M7,14 L16,18.5 L25,14 L25,17 L16,21.5 L7,17 Z" fill="#7a8285"/>
  <!-- Üst Yüzey -->
  <path d="M16,10 L25,14 L16,18.5 L7,14 Z" fill="#b0b7bd"/>

  <!-- 1. KATMAN: PYTHON (En Üst - Mavi) -->
  <!-- Kenar/Kalınlık -->
  <path d="M7,8 L16,12.5 L25,8 L25,11 L16,15.5 L7,11 Z" fill="#244464"/>
  <!-- Üst Yüzey -->
  <path d="M16,4 L25,8 L16,12.5 L7,8 Z" fill="#3776ab"/>
</svg>
